<?xml version="1.0" encoding="UTF-8" standalone="no"?>
<!-- Created with Inkscape (http://www.inkscape.org/) -->

<svg
   width="42.743343mm"
   height="16.408777mm"
   viewBox="0 0 161.54965 62.017427"
   version="1.1"
   id="svg1"
   inkscape:version="1.3 (0e150ed6c4, 2023-07-21)"
   sodipodi:docname="drawing.svg"
   xmlns:inkscape="http://www.inkscape.org/namespaces/inkscape"
   xmlns:sodipodi="http://sodipodi.sourceforge.net/DTD/sodipodi-0.dtd"
   xmlns:xlink="http://www.w3.org/1999/xlink"
   xmlns="http://www.w3.org/2000/svg"
   xmlns:svg="http://www.w3.org/2000/svg">
  <sodipodi:namedview
     id="namedview1"
     pagecolor="#505050"
     bordercolor="#eeeeee"
     borderopacity="1"
     inkscape:showpageshadow="0"
     inkscape:pageopacity="0"
     inkscape:pagecheckerboard="0"
     inkscape:deskcolor="#505050"
     inkscape:document-units="mm"
     inkscape:zoom="2"
     inkscape:cx="387"
     inkscape:cy="555"
     inkscape:window-width="1372"
     inkscape:window-height="485"
     inkscape:window-x="471"
     inkscape:window-y="361"
     inkscape:window-maximized="0"
     inkscape:current-layer="g17" />
  <defs
     id="defs1">
    <inkscape:path-effect
       effect="fillet_chamfer"
       id="path-effect16"
       is_visible="true"
       lpeversion="1"
       nodesatellites_param="F,0,0,1,0,0,0,1 @ F,0,0,1,0,0,0,1 @ F,0,0,1,0,0,0,1 @ F,0,0,1,0,0,0,1 @ F,0,0,1,0,0,0,1 @ F,0,0,1,0,0,0,1 @ F,0,0,1,0,0,0,1 @ F,0,0,1,0,0,0,1 @ F,0,0,1,0,0,0,1 @ F,0,0,1,0,0,0,1 | F,0,0,1,0,0,0,1 @ F,0,0,1,0,0,0,1 @ F,0,0,1,0,0,0,1 @ F,0,0,1,0,0,0,1 @ F,0,0,1,0,0,0,1 @ F,0,0,1,0,0,0,1 @ F,0,0,1,0,0,0,1 | F,0,0,1,0,0,0,1 @ F,0,0,1,0,0,0,1 @ F,0,0,1,0,0,0,1 @ F,0,0,1,0,0,0,1 | F,0,0,1,0,0,0,1 @ F,0,0,1,0,0,0,1 @ F,0,0,1,0,0,0,1 @ F,0,0,1,0,0,0,1 @ F,0,0,1,0,0,0,1 @ F,0,0,1,0,0,0,1 @ F,0,0,1,0,0,0,1 @ F,0,0,1,0,0,0,1 @ F,0,0,1,0,0,0,1 @ F,0,0,1,0,0,0,1 @ F,0,0,1,0,0,0,1 @ F,0,0,1,0,0,0,1 @ F,0,0,1,0,0,0,1 @ F,0,0,1,0,0,0,1 @ F,0,0,1,0,0,0,1 @ F,0,0,1,0,0,0,1 @ F,0,0,1,0,0,0,1 @ F,0,0,1,0,0,0,1 @ F,0,0,1,0,0,0,1 @ F,0,0,1,0,0,0,1 @ F,0,0,1,0,0,0,1 | F,0,0,1,0,0,0,1 @ F,0,0,1,0,0,0,1 @ F,0,0,1,0,0,0,1 @ F,0,0,1,0,0,0,1 @ F,0,0,1,0,0,0,1 @ F,0,0,1,0,0,0,1 @ F,0,0,1,0,0,0,1 @ F,0,0,1,0,0,0,1 | F,0,0,1,0,0,0,1 @ F,0,0,1,0,0,0,1 @ F,0,0,1,0,0,0,1 @ F,0,0,1,0,0,0,1 @ F,0,0,1,0,0,0,1 @ F,0,0,1,0,0,0,1 @ F,0,0,1,0,0,0,1 @ F,0,0,1,0,0,0,1 @ F,0,0,1,0,0,0,1 @ F,0,0,1,0,0,0,1 @ F,0,0,1,0,0,0,1 @ F,0,0,1,0,0,0,1 @ F,0,0,1,0,0,0,1 @ F,0,0,1,0,0,0,1 @ F,0,0,1,0,0,0,1 @ F,0,0,1,0,0,0,1 @ F,0,0,1,0,0,0,1 @ F,0,0,1,0,0,0,1 @ F,0,0,1,0,0,0,1 @ F,0,0,1,0,0,0,1 @ F,0,0,1,0,0,0,1 @ F,0,0,1,0,0,0,1 @ F,0,0,1,0,0,0,1 @ F,0,0,1,0,0,0,1 @ F,0,0,1,0,0,0,1 @ F,0,0,1,0,0,0,1 @ F,0,0,1,0,0,0,1 @ F,0,0,1,0,0,0,1 @ F,0,0,1,0,0,0,1 @ F,0,0,1,0,0,0,1 | F,0,0,1,0,0,0,1 @ F,0,0,1,0,0,0,1 @ F,0,0,1,0,0,0,1 @ F,0,0,1,0,0,0,1 @ F,0,0,1,0,0,0,1 @ F,0,0,1,0,0,0,1 @ F,0,0,1,0,0,0,1 @ F,0,0,1,0,0,0,1 @ F,0,0,1,0,0,0,1 @ F,0,0,1,0,0,0,1 @ F,0,0,1,0,0,0,1 @ F,0,0,1,0,0,0,1 @ F,0,0,1,0,0,0,1 @ F,0,0,1,0,0,0,1 @ F,0,0,1,0,0,0,1 @ F,0,0,1,0,0,0,1 @ F,0,0,1,0,0,0,1 @ F,0,0,1,0,0,0,1 @ F,0,0,1,0,0,0,1 @ F,0,0,1,0,0,0,1 @ F,0,0,1,0,0,0,1 | F,0,0,1,0,0,0,1 @ F,0,0,1,0,0,0,1 @ F,0,0,1,0,0,0,1 @ F,0,0,1,0,0,0,1 @ F,0,0,1,0,0,0,1 @ F,0,0,1,0,0,0,1 @ F,0,0,1,0,0,0,1 @ F,0,0,1,0,0,0,1 | F,0,0,1,0,0,0,1 @ F,0,0,1,0,0,0,1 @ F,0,0,1,0,0,0,1 @ F,0,0,1,0,0,0,1 | F,0,0,1,0,0,0,1 @ F,0,0,1,0,0,0,1 @ F,0,0,1,0,0,0,1 @ F,0,0,1,0,0,0,1 @ F,0,0,1,0,0,0,1 @ F,0,0,1,0,0,0,1 @ F,0,0,1,0,0,0,1 @ F,0,0,1,0,0,0,1 @ F,0,0,1,0,0,0,1 @ F,0,0,1,0,0,0,1 @ F,0,0,1,0,0,0,1 @ F,0,0,1,0,0,0,1 @ F,0,0,1,0,0,0,1 @ F,0,0,1,0,0,0,1 @ F,0,0,1,0,0,0,1 @ F,0,0,1,0,0,0,1 @ F,0,0,1,0,0,0,1 @ F,0,0,1,0,0,0,1 @ F,0,0,1,0,0,0,1 | F,0,0,1,0,0,0,1 @ F,0,0,1,0,0,0,1 @ F,0,0,1,0,0,0,1 @ F,0,0,1,0,0,0,1 | F,0,0,1,0,0,0,1 @ F,0,0,1,0,0,0,1 @ F,0,0,1,0,0,0,1 @ F,0,0,1,0,0,0,1 @ F,0,0,1,0,0,0,1 @ F,0,0,1,0,0,0,1 @ F,0,0,1,0,0,0,1 @ F,0,0,1,0,0,0,1 @ F,0,0,1,0,0,0,1 @ F,0,0,1,0,0,0,1 @ F,0,0,1,0,0,0,1 @ F,0,0,1,0,0,0,1 @ F,0,0,1,0,0,0,1 @ F,0,0,1,0,0,0,1 @ F,0,0,1,0,0,0,1 @ F,0,0,1,0,0,0,1 @ F,0,0,1,0,0,0,1 @ F,0,0,1,0,0,0,1 | F,0,0,1,0,0,0,1 @ F,0,0,1,0,0,0,1 @ F,0,0,1,0,0,0,1 @ F,0,0,1,0,0,0,1 @ F,0,0,1,0,0,0,1 | F,0,0,1,0,0,0,1 @ F,0,0,1,0,0,0,1 @ F,0,0,1,0,0,0,1 @ F,0,0,1,0,0,0,1 @ F,0,0,1,0,0,0,1 @ F,0,0,1,0,0,0,1 @ F,0,0,1,0,0,0,1 @ F,0,0,1,0,0,0,1 @ F,0,0,1,0,0,0,1 @ F,0,0,1,0,0,0,1 @ F,0,0,1,0,0,0,1 @ F,0,0,1,0,0,0,1 @ F,0,0,1,0,0,0,1 @ F,0,0,1,0,0,0,1 @ F,0,0,1,0,0,0,1 @ F,0,0,1,0,0,0,1 @ F,0,0,1,0,0,0,1 @ F,0,0,1,0,0,0,1 @ F,0,0,1,0,0,0,1 @ F,0,0,1,0,0,0,1 @ F,0,0,1,0,0,0,1 | F,0,0,1,0,0,0,1 @ F,0,0,1,0,0,0,1 @ F,0,0,1,0,0,0,1 @ F,0,0,1,0,0,0,1 @ F,0,0,1,0,0,0,1 @ F,0,0,1,0,0,0,1 @ F,0,0,1,0,0,0,1 @ F,0,0,1,0,0,0,1 | F,0,0,1,0,0,0,1 @ F,0,0,1,0,0,0,1 @ F,0,0,1,0,0,0,1 @ F,0,0,1,0,0,0,1 @ F,0,0,1,0,0,0,1 @ F,0,0,1,0,0,0,1 @ F,0,0,1,0,0,0,1 @ F,0,0,1,0,0,0,1 @ F,0,0,1,0,0,0,1 @ F,0,0,1,0,0,0,1 @ F,0,0,1,0,0,0,1 @ F,0,0,1,0,0,0,1 @ F,0,0,1,0,0,0,1 @ F,0,0,1,0,0,0,1 @ F,0,0,1,0,0,0,1 @ F,0,0,1,0,0,0,1"
       radius="0"
       unit="px"
       method="auto"
       mode="F"
       chamfer_steps="1"
       flexible="false"
       use_knot_distance="true"
       apply_no_radius="true"
       apply_with_radius="true"
       only_selected="false"
       hide_knots="false" />
    <inkscape:path-effect
       effect="fillet_chamfer"
       id="path-effect12"
       is_visible="true"
       lpeversion="1"
       nodesatellites_param="F,0,0,1,0,0,0,1 @ F,0,0,1,0,0,0,1 @ F,0,0,1,0,0.41288814,0,1 @ F,0,0,1,0,0.51287505,0,1 @ F,0,0,1,0,0,0,1"
       radius="0"
       unit="px"
       method="auto"
       mode="F"
       chamfer_steps="1"
       flexible="false"
       use_knot_distance="true"
       apply_no_radius="true"
       apply_with_radius="true"
       only_selected="false"
       hide_knots="false" />
    <inkscape:path-effect
       effect="fillet_chamfer"
       id="path-effect11"
       is_visible="true"
       lpeversion="1"
       nodesatellites_param="F,0,0,1,0,0,0,1 @ F,0,0,1,0,0,0,1 @ F,0,0,1,0,0,0,1 @ F,0,0,1,0,0.46117239,0,1 @ F,0,0,1,0,0.40312936,0,1 @ F,0,0,1,0,0,0,1"
       radius="0"
       unit="px"
       method="auto"
       mode="F"
       chamfer_steps="1"
       flexible="false"
       use_knot_distance="true"
       apply_no_radius="true"
       apply_with_radius="true"
       only_selected="false"
       hide_knots="false" />
    <inkscape:path-effect
       effect="fillet_chamfer"
       id="path-effect10"
       is_visible="true"
       lpeversion="1"
       nodesatellites_param="F,0,0,1,0,0,0,1 @ F,0,0,1,0,0,0,1 @ F,0,0,1,0,0,0,1 @ F,0,0,1,0,0.54190639,0,1 @ F,0,0,1,0,0.46894036,0,1 @ F,0,0,1,0,0,0,1 @ F,0,0,1,0,0,0,1 @ F,0,0,1,0,0,0,1 @ F,0,0,1,0,0,0,1"
       radius="0"
       unit="px"
       method="auto"
       mode="F"
       chamfer_steps="1"
       flexible="false"
       use_knot_distance="true"
       apply_no_radius="true"
       apply_with_radius="true"
       only_selected="false"
       hide_knots="false" />
    <inkscape:path-effect
       effect="fillet_chamfer"
       id="path-effect9"
       is_visible="true"
       lpeversion="1"
       nodesatellites_param="F,0,0,1,0,0,0,1 @ F,0,0,1,0,0,0,1 @ F,0,0,1,0,0,0,1 @ F,0,0,1,0,0.73931453,0,1 @ F,0,0,1,0,0.44179106,0,1 @ F,0,0,1,0,0,0,1 @ F,0,0,1,0,0,0,1"
       radius="0"
       unit="px"
       method="auto"
       mode="F"
       chamfer_steps="1"
       flexible="false"
       use_knot_distance="true"
       apply_no_radius="true"
       apply_with_radius="true"
       only_selected="false"
       hide_knots="false" />
    <linearGradient
       id="linearGradient3"
       inkscape:collect="always">
      <stop
         style="stop-color:#09d0e8;stop-opacity:0.14799482;"
         offset="0"
         id="stop3" />
      <stop
         style="stop-color:#09d0e8;stop-opacity:1;"
         offset="1"
         id="stop4" />
    </linearGradient>
    <linearGradient
       inkscape:collect="always"
       xlink:href="#linearGradient3"
       id="linearGradient4"
       x1="404.89279"
       y1="408.07898"
       x2="445.4357"
       y2="408.07898"
       gradientUnits="userSpaceOnUse" />
    <linearGradient
       inkscape:collect="always"
       xlink:href="#linearGradient3"
       id="linearGradient5"
       gradientUnits="userSpaceOnUse"
       x1="404.89279"
       y1="408.07898"
       x2="445.4357"
       y2="408.07898" />
    <linearGradient
       inkscape:collect="always"
       xlink:href="#linearGradient3"
       id="linearGradient6"
       gradientUnits="userSpaceOnUse"
       x1="404.89279"
       y1="408.07898"
       x2="445.4357"
       y2="408.07898" />
    <linearGradient
       inkscape:collect="always"
       xlink:href="#linearGradient3"
       id="linearGradient7"
       gradientUnits="userSpaceOnUse"
       x1="404.89279"
       y1="408.07898"
       x2="445.4357"
       y2="408.07898" />
    <linearGradient
       inkscape:collect="always"
       xlink:href="#linearGradient3"
       id="linearGradient8"
       gradientUnits="userSpaceOnUse"
       x1="404.89279"
       y1="408.07898"
       x2="445.4357"
       y2="408.07898" />
  </defs>
  <g
     id="g19"
     inkscape:label="White"
     transform="translate(-290.00409,-391.49777)">
    <path
       d="m 296.80801,429.59127 c 2.98667,0 5.16267,0.58667 6.528,1.76 1.36533,1.17333 2.048,2.82667 2.048,4.96 0,1.25867 -0.288,2.44267 -0.864,3.552 -0.55467,1.088 -1.504,1.97333 -2.848,2.656 -1.32267,0.68267 -3.12533,1.024 -5.408,1.024 h -2.624 v 8.896 h -2.88 v -22.848 z m -0.256,2.464 h -2.912 v 9.024 h 2.304 c 2.176,0 3.79733,-0.352 4.864,-1.056 1.06667,-0.704 1.6,-1.89867 1.6,-3.584 0,-1.472 -0.46933,-2.57067 -1.408,-3.296 -0.93867,-0.72533 -2.42133,-1.088 -4.448,-1.088 z m 16.99998,20.384 h -2.816 v -24.32 h 2.816 z m 12.93598,-17.44 c 2.09067,0 3.63733,0.45867 4.64,1.376 1.00267,0.91733 1.504,2.37867 1.504,4.384 v 11.68 h -2.048 l -0.544,-2.432 h -0.128 c -0.74667,0.93867 -1.536,1.632 -2.368,2.08 -0.81067,0.448 -1.94133,0.672 -3.392,0.672 -1.55733,0 -2.848,-0.40533 -3.872,-1.216 -1.024,-0.832 -1.536,-2.12267 -1.536,-3.872 0,-1.70667 0.672,-3.01867 2.016,-3.936 1.344,-0.93867 3.41333,-1.45067 6.208,-1.536 l 2.912,-0.096 v -1.024 c 0,-1.42933 -0.30933,-2.42133 -0.928,-2.976 -0.61867,-0.55467 -1.49333,-0.832 -2.624,-0.832 -0.896,0 -1.74933,0.13867 -2.56,0.416 -0.81067,0.256 -1.568,0.55467 -2.272,0.896 l -0.864,-2.112 c 0.74667,-0.40533 1.632,-0.74667 2.656,-1.024 1.024,-0.29867 2.09067,-0.448 3.2,-0.448 z m 0.832,9.152 c -2.13333,0.0853 -3.616,0.42667 -4.448,1.024 -0.81067,0.59733 -1.216,1.44 -1.216,2.528 0,0.96 0.288,1.664 0.864,2.112 0.59733,0.448 1.35467,0.672 2.272,0.672 1.45067,0 2.656,-0.39467 3.616,-1.184 0.96,-0.81067 1.44,-2.048 1.44,-3.712 v -1.536 z m 22.79203,3.552 c 0,1.664 -0.61867,2.92267 -1.856,3.776 -1.23733,0.85333 -2.90133,1.28 -4.992,1.28 -1.19467,0 -2.22933,-0.096 -3.104,-0.288 -0.85333,-0.192 -1.61067,-0.45867 -2.272,-0.8 v -2.56 c 0.68267,0.34133 1.504,0.66133 2.464,0.96 0.98133,0.27733 1.97333,0.416 2.976,0.416 1.42933,0 2.464,-0.224 3.104,-0.672 0.64,-0.46933 0.96,-1.088 0.96,-1.856 0,-0.42667 -0.11733,-0.81067 -0.352,-1.152 -0.23467,-0.34133 -0.66133,-0.68267 -1.28,-1.024 -0.59733,-0.34133 -1.46133,-0.72533 -2.592,-1.152 -1.10933,-0.42667 -2.05867,-0.85333 -2.848,-1.28 -0.78933,-0.42667 -1.39733,-0.93867 -1.824,-1.536 -0.42667,-0.59733 -0.64,-1.36533 -0.64,-2.304 0,-1.45067 0.58667,-2.57067 1.76,-3.36 1.19467,-0.78933 2.752,-1.184 4.672,-1.184 1.04533,0 2.016,0.10667 2.912,0.32 0.91733,0.192 1.77067,0.46933 2.56,0.832 l -0.96,2.24 c -0.72533,-0.29867 -1.48267,-0.55467 -2.272,-0.768 -0.78933,-0.21333 -1.6,-0.32 -2.432,-0.32 -1.152,0 -2.03733,0.192 -2.656,0.576 -0.59733,0.36267 -0.896,0.864 -0.896,1.504 0,0.46933 0.13867,0.87467 0.416,1.216 0.27733,0.32 0.736,0.64 1.376,0.96 0.66133,0.29867 1.536,0.66133 2.624,1.088 1.088,0.40533 2.016,0.82133 2.784,1.248 0.768,0.42667 1.35467,0.94933 1.76,1.568 0.40533,0.59733 0.608,1.35467 0.608,2.272 z m 10.888,2.752 c 0.42667,0 0.864,-0.032 1.312,-0.096 0.448,-0.0853 0.81067,-0.17067 1.088,-0.256 v 2.144 c -0.29867,0.14933 -0.72533,0.26667 -1.28,0.352 -0.55467,0.10667 -1.088,0.16 -1.6,0.16 -0.896,0 -1.728,-0.14933 -2.496,-0.448 -0.74667,-0.32 -1.35467,-0.864 -1.824,-1.632 -0.46933,-0.768 -0.704,-1.84533 -0.704,-3.232 v -9.984 h -2.432 v -1.344 l 2.464,-1.12 1.12,-3.648 h 1.664 v 3.936 h 4.96 v 2.176 h -4.96 v 9.92 c 0,1.04533 0.24533,1.824 0.736,2.336 0.512,0.49067 1.16267,0.736 1.952,0.736 z m 8.264,-21.6 c 0.42667,0 0.8,0.14933 1.12,0.448 0.34133,0.27733 0.512,0.72533 0.512,1.344 0,0.59733 -0.17067,1.04533 -0.512,1.344 -0.32,0.29867 -0.69333,0.448 -1.12,0.448 -0.46933,0 -0.864,-0.14933 -1.184,-0.448 -0.32,-0.29867 -0.48,-0.74667 -0.48,-1.344 0,-0.61867 0.16,-1.06667 0.48,-1.344 0.32,-0.29867 0.71467,-0.448 1.184,-0.448 z m 1.376,6.432 v 17.152 h -2.816 v -17.152 z m 13.31999,17.472 c -1.51467,0 -2.86933,-0.30933 -4.064,-0.928 -1.17333,-0.61867 -2.10133,-1.57867 -2.784,-2.88 -0.66133,-1.30133 -0.992,-2.96533 -0.992,-4.992 0,-2.112 0.352,-3.82933 1.056,-5.152 0.704,-1.32267 1.65333,-2.29333 2.848,-2.912 1.216,-0.61867 2.592,-0.928 4.128,-0.928 0.87467,0 1.71733,0.096 2.528,0.288 0.81067,0.17067 1.472,0.384 1.984,0.64 l -0.864,2.336 c -0.512,-0.192 -1.10933,-0.37333 -1.792,-0.544 -0.68267,-0.17067 -1.32267,-0.256 -1.92,-0.256 -3.37067,0 -5.056,2.16533 -5.056,6.496 0,2.06933 0.40533,3.65867 1.216,4.768 0.832,1.088 2.05867,1.632 3.68,1.632 0.93867,0 1.76,-0.096 2.464,-0.288 0.72533,-0.192 1.38667,-0.42667 1.984,-0.704 v 2.496 c -0.576,0.29867 -1.216,0.52267 -1.92,0.672 -0.68267,0.17067 -1.51467,0.256 -2.496,0.256 z m 12.29598,-0.32 h -2.816 v -24.32 h 2.816 z m 13.06398,-17.472 c 1.472,0 2.73067,0.32 3.776,0.96 1.06667,0.64 1.87733,1.54667 2.432,2.72 0.576,1.152 0.864,2.50667 0.864,4.064 v 1.696 h -11.744 c 0.0427,1.94133 0.53333,3.424 1.472,4.448 0.96,1.00267 2.29333,1.504 4,1.504 1.088,0 2.048,-0.096 2.88,-0.288 0.85333,-0.21333 1.728,-0.512 2.624,-0.896 v 2.464 c -0.87467,0.384 -1.73867,0.66133 -2.592,0.832 -0.85333,0.192 -1.86667,0.288 -3.04,0.288 -1.62133,0 -3.06133,-0.33067 -4.32,-0.992 -1.23733,-0.66133 -2.208,-1.64267 -2.912,-2.944 -0.68267,-1.32267 -1.024,-2.93333 -1.024,-4.832 0,-1.87733 0.30933,-3.488 0.928,-4.832 0.64,-1.344 1.52533,-2.37867 2.656,-3.104 1.152,-0.72533 2.48533,-1.088 4,-1.088 z m -0.032,2.304 c -1.344,0 -2.41067,0.43733 -3.2,1.312 -0.768,0.85333 -1.22667,2.048 -1.376,3.584 h 8.736 c -0.0213,-1.45067 -0.36267,-2.624 -1.024,-3.52 -0.66133,-0.91733 -1.70667,-1.376 -3.136,-1.376 z m 18.95198,-2.272 c 2.09067,0 3.63733,0.45867 4.64,1.376 1.00267,0.91733 1.504,2.37867 1.504,4.384 v 11.68 h -2.048 l -0.544,-2.432 h -0.128 c -0.74667,0.93867 -1.536,1.632 -2.368,2.08 -0.81067,0.448 -1.94133,0.672 -3.392,0.672 -1.55733,0 -2.848,-0.40533 -3.872,-1.216 -1.024,-0.832 -1.536,-2.12267 -1.536,-3.872 0,-1.70667 0.672,-3.01867 2.016,-3.936 1.344,-0.93867 3.41333,-1.45067 6.208,-1.536 l 2.912,-0.096 v -1.024 c 0,-1.42933 -0.30933,-2.42133 -0.928,-2.976 -0.61867,-0.55467 -1.49333,-0.832 -2.624,-0.832 -0.896,0 -1.74933,0.13867 -2.56,0.416 -0.81067,0.256 -1.568,0.55467 -2.272,0.896 l -0.864,-2.112 c 0.74667,-0.40533 1.632,-0.74667 2.656,-1.024 1.024,-0.29867 2.09067,-0.448 3.2,-0.448 z m 0.832,9.152 c -2.13333,0.0853 -3.616,0.42667 -4.448,1.024 -0.81067,0.59733 -1.216,1.44 -1.216,2.528 0,0.96 0.288,1.664 0.864,2.112 0.59733,0.448 1.35467,0.672 2.272,0.672 1.45067,0 2.656,-0.39467 3.616,-1.184 0.96,-0.81067 1.44,-2.048 1.44,-3.712 v -1.536 z m 19.62402,-9.184 c 0.32,0 0.66133,0.0213 1.024,0.064 0.384,0.0213 0.71467,0.064 0.992,0.128 l -0.352,2.592 c -0.27733,-0.064 -0.58667,-0.11733 -0.928,-0.16 -0.32,-0.0427 -0.62933,-0.064 -0.928,-0.064 -0.87467,0 -1.696,0.24533 -2.464,0.736 -0.768,0.46933 -1.38667,1.14133 -1.856,2.016 -0.448,0.85333 -0.672,1.856 -0.672,3.008 v 9.152 h -2.816 v -17.152 h 2.304 l 0.32,3.136 h 0.128 c 0.55467,-0.93867 1.26933,-1.74933 2.144,-2.432 0.87467,-0.68267 1.90933,-1.024 3.104,-1.024 z"
       id="text1"
       style="font-size:32px;line-height:0;font-family:'Noto Sans';-inkscape-font-specification:'Noto Sans';letter-spacing:1px;fill:#ffffff;stroke:#ffffff;stroke-width:1.51181"
       aria-label="Plasticlear"
       inkscape:original-d="m 296.80801,429.59127 q 4.48,0 6.528,1.76 2.048,1.76 2.048,4.96 0,1.888 -0.864,3.552 -0.832,1.632 -2.848,2.656 -1.984,1.024 -5.408,1.024 h -2.624 v 8.896 h -2.88 v -22.848 z m -0.256,2.464 h -2.912 v 9.024 h 2.304 q 3.264,0 4.864,-1.056 1.6,-1.056 1.6,-3.584 0,-2.208 -1.408,-3.296 -1.408,-1.088 -4.448,-1.088 z m 16.99998,20.384 h -2.816 v -24.32 h 2.816 z m 12.93598,-17.44 q 3.136,0 4.64,1.376 1.504,1.376 1.504,4.384 v 11.68 h -2.048 l -0.544,-2.432 h -0.128 q -1.12,1.408 -2.368,2.08 -1.216,0.672 -3.392,0.672 -2.336,0 -3.872,-1.216 -1.536,-1.248 -1.536,-3.872 0,-2.56 2.016,-3.936 2.016,-1.408 6.208,-1.536 l 2.912,-0.096 v -1.024 q 0,-2.144 -0.928,-2.976 -0.928,-0.832 -2.624,-0.832 -1.344,0 -2.56,0.416 -1.216,0.384 -2.272,0.896 l -0.864,-2.112 q 1.12,-0.608 2.656,-1.024 1.536,-0.448 3.2,-0.448 z m 0.832,9.152 q -3.2,0.128 -4.448,1.024 -1.216,0.896 -1.216,2.528 0,1.44 0.864,2.112 0.896,0.672 2.272,0.672 2.176,0 3.616,-1.184 1.44,-1.216 1.44,-3.712 v -1.536 z m 22.79203,3.552 q 0,2.496 -1.856,3.776 -1.856,1.28 -4.992,1.28 -1.792,0 -3.104,-0.288 -1.28,-0.288 -2.272,-0.8 v -2.56 q 1.024,0.512 2.464,0.96 1.472,0.416 2.976,0.416 2.144,0 3.104,-0.672 0.96,-0.704 0.96,-1.856 0,-0.64 -0.352,-1.152 -0.352,-0.512 -1.28,-1.024 -0.896,-0.512 -2.592,-1.152 -1.664,-0.64 -2.848,-1.28 -1.184,-0.64 -1.824,-1.536 -0.64,-0.896 -0.64,-2.304 0,-2.176 1.76,-3.36 1.792,-1.184 4.672,-1.184 1.568,0 2.912,0.32 1.376,0.288 2.56,0.832 l -0.96,2.24 q -1.088,-0.448 -2.272,-0.768 -1.184,-0.32 -2.432,-0.32 -1.728,0 -2.656,0.576 -0.896,0.544 -0.896,1.504 0,0.704 0.416,1.216 0.416,0.48 1.376,0.96 0.992,0.448 2.624,1.088 1.632,0.608 2.784,1.248 1.152,0.64 1.76,1.568 0.608,0.896 0.608,2.272 z m 10.888,2.752 q 0.64,0 1.312,-0.096 0.672,-0.128 1.088,-0.256 v 2.144 q -0.448,0.224 -1.28,0.352 -0.832,0.16 -1.6,0.16 -1.344,0 -2.496,-0.448 -1.12,-0.48 -1.824,-1.632 -0.704,-1.152 -0.704,-3.232 v -9.984 h -2.432 v -1.344 l 2.464,-1.12 1.12,-3.648 h 1.664 v 3.936 h 4.96 v 2.176 h -4.96 v 9.92 q 0,1.568 0.736,2.336 0.768,0.736 1.952,0.736 z m 8.264,-21.6 q 0.64,0 1.12,0.448 0.512,0.416 0.512,1.344 0,0.896 -0.512,1.344 -0.48,0.448 -1.12,0.448 -0.704,0 -1.184,-0.448 -0.48,-0.448 -0.48,-1.344 0,-0.928 0.48,-1.344 0.48,-0.448 1.184,-0.448 z m 1.376,6.432 v 17.152 h -2.816 v -17.152 z m 13.31999,17.472 q -2.272,0 -4.064,-0.928 -1.76,-0.928 -2.784,-2.88 -0.992,-1.952 -0.992,-4.992 0,-3.168 1.056,-5.152 1.056,-1.984 2.848,-2.912 1.824,-0.928 4.128,-0.928 1.312,0 2.528,0.288 1.216,0.256 1.984,0.64 l -0.864,2.336 q -0.768,-0.288 -1.792,-0.544 -1.024,-0.256 -1.92,-0.256 -5.056,0 -5.056,6.496 0,3.104 1.216,4.768 1.248,1.632 3.68,1.632 1.408,0 2.464,-0.288 1.088,-0.288 1.984,-0.704 v 2.496 q -0.864,0.448 -1.92,0.672 -1.024,0.256 -2.496,0.256 z m 12.29598,-0.32 h -2.816 v -24.32 h 2.816 z m 13.06398,-17.472 q 2.208,0 3.776,0.96 1.6,0.96 2.432,2.72 0.864,1.728 0.864,4.064 v 1.696 h -11.744 q 0.064,2.912 1.472,4.448 1.44,1.504 4,1.504 1.632,0 2.88,-0.288 1.28,-0.32 2.624,-0.896 v 2.464 q -1.312,0.576 -2.592,0.832 -1.28,0.288 -3.04,0.288 -2.432,0 -4.32,-0.992 -1.856,-0.992 -2.912,-2.944 -1.024,-1.984 -1.024,-4.832 0,-2.816 0.928,-4.832 0.96,-2.016 2.656,-3.104 1.728,-1.088 4,-1.088 z m -0.032,2.304 q -2.016,0 -3.2,1.312 -1.152,1.28 -1.376,3.584 h 8.736 q -0.032,-2.176 -1.024,-3.52 -0.992,-1.376 -3.136,-1.376 z m 18.95198,-2.272 q 3.136,0 4.64,1.376 1.504,1.376 1.504,4.384 v 11.68 h -2.048 l -0.544,-2.432 h -0.128 q -1.12,1.408 -2.368,2.08 -1.216,0.672 -3.392,0.672 -2.336,0 -3.872,-1.216 -1.536,-1.248 -1.536,-3.872 0,-2.56 2.016,-3.936 2.016,-1.408 6.208,-1.536 l 2.912,-0.096 v -1.024 q 0,-2.144 -0.928,-2.976 -0.928,-0.832 -2.624,-0.832 -1.344,0 -2.56,0.416 -1.216,0.384 -2.272,0.896 l -0.864,-2.112 q 1.12,-0.608 2.656,-1.024 1.536,-0.448 3.2,-0.448 z m 0.832,9.152 q -3.2,0.128 -4.448,1.024 -1.216,0.896 -1.216,2.528 0,1.44 0.864,2.112 0.896,0.672 2.272,0.672 2.176,0 3.616,-1.184 1.44,-1.216 1.44,-3.712 v -1.536 z m 19.62402,-9.184 q 0.48,0 1.024,0.064 0.576,0.032 0.992,0.128 l -0.352,2.592 q -0.416,-0.096 -0.928,-0.16 -0.48,-0.064 -0.928,-0.064 -1.312,0 -2.464,0.736 -1.152,0.704 -1.856,2.016 -0.672,1.28 -0.672,3.008 v 9.152 h -2.816 v -17.152 h 2.304 l 0.32,3.136 h 0.128 q 0.832,-1.408 2.144,-2.432 1.312,-1.024 3.104,-1.024 z"
       inkscape:path-effect="#path-effect16" />
    <rect
       style="opacity:1;fill:#ffffff;stroke:#ffffff;stroke-width:1.50706"
       id="rect1"
       width="2.8436928"
       height="54.909458"
       x="393.42746"
       y="397.54089"
       ry="0.20051806" />
    <circle
       style="opacity:1;fill:#67e8f9;fill-opacity:0.775303;stroke:none;stroke-width:1.51181;stroke-opacity:1"
       id="path2"
       cx="366.23303"
       cy="401.1795"
       r="7.221447" />
    <circle
       style="opacity:1;fill:#67e8f9;fill-opacity:0.772392;stroke:none;stroke-width:1.03273;stroke-opacity:1"
       id="path2-5"
       cx="382.06421"
       cy="409.93304"
       r="4.9330206" />
    <circle
       style="fill:#67e8f9;fill-opacity:0.809793;stroke:none;stroke-width:1.242;stroke-opacity:1"
       id="path2-5-2"
       cx="355.0116"
       cy="416.88217"
       r="5.9326267" />
    <circle
       style="fill:#67e8f9;fill-opacity:1;stroke:none;stroke-width:1.07322;stroke-opacity:1"
       id="path2-5-2-7"
       cx="347.07898"
       cy="400.86966"
       r="5.1264091" />
    <g
       id="g3"
       style="fill:url(#linearGradient4)"
       transform="translate(-1.2430267,0.00103204)">
      <path
         style="opacity:1;fill:url(#linearGradient5);fill-opacity:1;stroke:none;stroke-width:1.51181;stroke-opacity:1"
         d="m 404.89324,407.19459 c 0,0 6.38045,-1.00762 12.65415,-2.39648 3.50878,-0.77677 7.08632,-1.72093 9.64583,-2.60369 5.76555,-1.98849 15.13198,-8.77463 17.56301,-10.57609 0.32762,-0.24278 0.59164,-0.11103 0.59194,0.29728 l 0.004,5.57017 c 1.8e-4,0.24399 -0.18283,0.51651 -0.40904,0.60799 -2.01734,0.81584 -11.02265,4.42037 -16.4815,5.98434 -2.73762,0.78433 -7.15983,1.67693 -10.85823,2.12477 -6.46466,0.78279 -12.71028,0.99171 -12.71028,0.99171 z"
         id="path3"
         sodipodi:nodetypes="cssccssc"
         inkscape:path-effect="#path-effect9"
         inkscape:original-d="m 404.89324,407.19459 c 0,0 6.38045,-1.00762 12.65415,-2.39648 3.50878,-0.77677 7.08632,-1.72093 9.64583,-2.60369 6.66859,-2.29994 18.1544,-11.01812 18.1544,-11.01812 l 0.005,6.75127 c 0,0 -10.71505,4.38116 -16.89087,6.15054 -2.73762,0.78433 -7.15983,1.67693 -10.85823,2.12477 -6.46466,0.78279 -12.71028,0.99171 -12.71028,0.99171 z" />
      <path
         style="fill:url(#linearGradient6);fill-opacity:1;stroke:none;stroke-width:1.51181;stroke-opacity:1"
         d="m 404.8928,412.8402 c 0,0 6.21726,-1.12265 12.57037,-2.17209 3.5582,-0.58777 7.16715,-1.26012 10.08402,-1.92591 6.02153,-1.37444 15.14477,-4.68395 17.3807,-5.50831 0.28068,-0.10348 0.50783,0.0542 0.50783,0.35352 v 3.18052 c 0,0.25899 -0.20557,0.51167 -0.4592,0.56415 -2.07348,0.42899 -10.70525,2.20506 -16.32494,3.21106 -2.85756,0.51154 -7.18835,1.05691 -10.90108,1.3641 -3.27935,0.27133 -6.62738,0.75095 -8.99988,0.85073 -2.35305,0.099 -3.85782,0.0822 -3.85782,0.0822 z"
         id="path3-6"
         sodipodi:nodetypes="cssccssscc"
         inkscape:path-effect="#path-effect10"
         inkscape:original-d="m 404.8928,412.8402 c 0,0 6.21726,-1.12265 12.57037,-2.17209 3.5582,-0.58777 7.16715,-1.26012 10.08402,-1.92591 6.90497,-1.57609 17.88853,-5.6967 17.88853,-5.6967 v 4.19137 c 0,0 -10.36009,2.15628 -16.78414,3.30627 -2.85756,0.51154 -7.18835,1.05691 -10.90108,1.3641 -3.27935,0.27133 -6.62738,0.75095 -8.99988,0.85073 -2.35305,0.099 -3.85782,0.0822 -3.85782,0.0822 z" />
      <path
         style="fill:url(#linearGradient7);fill-opacity:1;stroke:none;stroke-width:1.51181;stroke-opacity:1"
         d="m 404.8928,417.73781 c 0,0 6.25493,-0.30597 12.67159,-0.82323 3.67501,-0.29625 7.53126,-0.75724 10.20522,-1.18189 6.18495,-0.98224 15.12674,-2.90521 17.21728,-3.35997 0.24793,-0.0539 0.44883,0.10841 0.44883,0.36311 v 2.98756 c 0,0.22264 -0.1791,0.4255 -0.40006,0.45281 -9.54755,1.18003 -17.8669,1.80804 -27.13461,1.80571 -6.46663,-0.002 -13.00825,-0.2441 -13.00825,-0.2441 z"
         id="path3-6-6"
         sodipodi:nodetypes="cssccscc"
         inkscape:path-effect="#path-effect11"
         inkscape:original-d="m 404.8928,417.73781 c 0,0 6.25493,-0.30597 12.67159,-0.82323 3.67501,-0.29625 7.53126,-0.75724 10.20522,-1.18189 7.04476,-1.11879 17.66611,-3.45803 17.66611,-3.45803 v 3.85186 c -9.71582,1.21208 -18.13775,1.85775 -27.53467,1.85539 -6.46663,-0.002 -13.00825,-0.2441 -13.00825,-0.2441 z" />
      <path
         style="fill:url(#linearGradient8);fill-opacity:1;stroke:none;stroke-width:1.51181;stroke-opacity:1"
         d="m 404.8928,423.76656 c 0,0 11.83219,-0.19781 18.44832,-0.38571 9.4762,-0.26912 12.77395,-1.0182 21.68583,-2.22849 0.22574,-0.0307 0.40877,0.12956 0.40877,0.35759 v 2.72492 c 0,0.28326 -0.22955,0.5186 -0.51271,0.52574 -9.64154,0.24311 -15.76482,0.46879 -25.2376,0.23398 -6.39752,-0.15858 -14.79261,-1.22803 -14.79261,-1.22803 z"
         id="path3-6-6-9"
         sodipodi:nodetypes="csccsc"
         inkscape:path-effect="#path-effect12"
         inkscape:original-d="m 404.8928,423.76656 c 0,0 11.83219,-0.19781 18.44832,-0.38571 9.6197,-0.2732 12.87241,-1.041 22.0946,-2.28379 v 3.65069 c -9.93961,0.24788 -16.1107,0.48579 -25.75031,0.24684 -6.39752,-0.15858 -14.79261,-1.22803 -14.79261,-1.22803 z" />
    </g>
  </g>
</svg>
